# AST/ASF file generated using VICON BodyLanguage
# -----------------------------------------------
:version 1.10
:name VICON
:units
  mass 1.0
  length 0.45
  angle deg
:documentation
   .ast/.asf automatically generated from VICON data using
   VICON BodyBuilder and BodyLanguage model FoxedUp or BRILLIANT.MOD
:root
   order TX TY TZ RX RY RZ
   axis XYZ
   position 0 0 0  
   orientation 0 0 0 
:bonedata
  begin
     id 1 
     name lhipjoint
     direction 0.578396 -0.714046 0.394458 
     length 2.21935 
     axis 0 0 0  XYZ
  end
  begin
     id 2 
     name lfemur
     direction 0.34202 -0.939693 0  
     length 6.39105  
     axis 0 0 20  XYZ
    dof rx ry rz
    limits (-160.0 20.0)
           (-70.0 70.0)
           (-60.0 70.0)
  end
  begin
     id 3 
     name ltibia
     direction 0.34202 -0.939693 0   
     length 6.99037   
     axis 0 0 20   XYZ
    dof rx
    limits (-10.0 170.0)
  end
  begin
     id 4 
     name lfoot
     direction 0.0582372 -0.160005 0.985397   
     length 2.06111   
     axis -90 7.62852e-016 20   XYZ
    dof rx rz
    limits (-45.0 90.0)
           (-70.0 20.0)
  end
  begin
     id 5 
     name ltoes
     direction 1.53556e-011 -4.21875e-011 1   
     length 1.04074   
     axis -90 7.62852e-016 20   XYZ
    dof rx
    limits (-90.0 20.0)
  end
  begin
     id 6 
     name rhipjoint
     direction -0.558179 -0.726269 0.40121   
     length 2.182  
     axis 0 0 0  XYZ 
  end
  begin
     id 7 
     name rfemur
     direction -0.34202 -0.939693 0   
     length 6.51172   
     axis 0 0 -20   XYZ
    dof rx ry rz
    limits (-160.0 20.0)
           (-70.0 70.0)
           (-70.0 60.0)
  end
  begin
     id 8 
     name rtibia
     direction -0.34202 -0.939693 0   
     length 7.02607   
     axis 0 0 -20   XYZ
    dof rx
    limits (-10.0 170.0)
 end
 begin
     id 9 
     name rfoot
     direction -0.0788856 -0.216737 0.973038   
     length 1.96734  
     axis -90 -7.62852e-016 -20   XYZ
    dof rx rz
    limits (-45.0 90.0)
           (-20.0 70.0)
  end
  begin
     id 10 
     name rtoes
     direction -1.53567e-011 -4.21783e-011 1   
     length 0.990825   
     axis -90 -7.62852e-016 -20   XYZ
    dof rx
    limits (-90.0 20.0)
  end
  begin
     id 11 
     name lowerback
     direction 0.00668177 0.999323 -0.0361741   
     length 1.7655   
     axis 0 0 0   XYZ
    dof rx ry rz
    limits (-20.0 45.0)
           (-30.0 30.0)
           (-30.0 30.0)
  end
  begin
     id 12 
     name upperback
     direction -0.00222086 0.99851 0.0545167   
     length 1.74912   
     axis 0 0 0   XYZ
    dof rx ry rz
    limits (-20.0 45.0)
           (-30.0 30.0)
           (-30.0 30.0)
  end
  begin
     id 13 
     name thorax
     direction -0.00733971 0.997496 0.0703443   
     length 1.75715   
     axis 0 0 0   XYZ
    dof rx ry rz
    limits (-20.0 45.0)
           (-30.0 30.0)
           (-30.0 30.0)
  end
  begin
     id 14 
     name lowerneck
     direction 0.0279797 0.994795 0.0979765   
     length 1.46939   
     axis 0 0 0   XYZ
    dof rx ry rz
    limits (-20.0 45.0)
           (-30.0 30.0)
           (-30.0 30.0)
  end
  begin
     id 15 
     name upperneck
     direction 0.00339187 0.976776 -0.214238   
     length 1.48018   
     axis 0 0 0   XYZ
    dof rx ry rz
    limits (-20.0 45.0)
           (-30.0 30.0)
           (-30.0 30.0)
  end
  begin
     id 16
     name head
     direction -0.00263506 0.996603 -0.0823096  
     length 1.4976  
     axis 0 0 0   XYZ
    dof rx ry rz
    limits (-20.0 45.0)
           (-30.0 30.0)
           (-30.0 30.0)
  end
  begin
     id 17 
     name lclavicle
     direction 0.894044 0.44508 -0.0508781  
     length 3.03024  
     axis 0 0 0   XYZ
    dof ry rz
    limits (-20.0 10.0)
           (0.0 20.0)
  end
  begin
     id 18 
     name lhumerus
     direction 1 -4.48961e-011 -2.39475e-018   
     length 4.4661   
     axis 180 -30 -90   XYZ
    dof rx ry rz
    limits (-60.0 90.0)
           (-90.0 90.0)
           (-90.0 90.0)
  end
  begin
     id 19
     name lradius
     direction 1 -4.48961e-011 9.29328e-028   
     length 3.41414   
     axis 180 -30 -90   XYZ
    dof rx
    limits (-10.0 170.0)
  end
  begin
     id 20
     name lwrist
     direction 1 -4.48985e-011 1.53461e-026   
     length 1.70707   
     axis -1.09697e-014 90 90   XYZ
    dof ry
    limits (-180.0 0.0)
 end
  begin
     id 21 
     name lhand
     direction 1 -4.48966e-011 3.06923e-026   
     length 0.328298   
     axis -1.95843e-014 90 90   XYZ
    dof rx rz
    limits (-90.0 90.0)
           (-45.0 45.0)
  end
  begin
     id 22 
     name lfingers
     direction 1 -4.48893e-011 6.13845e-026   
     length 0.264682   
     axis -3.91686e-014 90 90   XYZ
    dof rx
    limits (0.0 90.0)
  end
  begin
     id 23
     name lthumb
     direction 0.707107 -6.34876e-011 0.707107   
     length 0.380032   
     axis -90 45 2.85299e-015   XYZ
    dof rx rz
    limits (-45.0 45.0)
           (-45.0 45.0)
  end
  begin
     id 24 
     name rclavicle
     direction -0.936955 0.347862 -0.0332887   
     length 3.26927  
     axis 0 0 0   XYZ 
    dof ry rz
    limits (-10.0 20.0)
           (-20.0 0.0)
  end
  begin
     id 25 
     name rhumerus
     direction -1 -4.4896e-011 1.78637e-018  
     length 4.40431   
     axis 180 30 90   XYZ
    dof rx ry rz
    limits (-90.0 60.0)
           (-90.0 90.0)
           (-90.0 90.0)
  end
  begin
     id 26 
     name rradius
     direction -1 -4.48955e-011 9.34036e-027   
     length 3.04688   
     axis 180 30 90   XYZ
    dof rx
    limits (-10.0 170.0)
  end
  begin
     id 27 
     name rwrist
     direction -1 -4.49011e-011 1.53461e-026   
     length 1.52344   
     axis -1.09697e-014 -90 -90   XYZ
    dof ry
    limits (-180.0 0.0)
  end
  begin
     id 28
     name rhand
     direction -1 -4.48834e-011 3.06923e-026   
     length 0.500489   
     axis -1.95843e-014 -90 -90   XYZ
    dof rx rz
    limits (-90.0 90.0)
           (-45.0 45.0)
  end
  begin
     id 29
     name rfingers
     direction -1 -4.48967e-011 6.13845e-026   
     length 0.403507   
     axis -3.91686e-014 -90 -90   XYZ
    dof rx
    limits (0.0 90.0)
  end
  begin
     id 30
     name rthumb
     direction -0.707107 -6.34826e-011 0.707107   
     length 0.579358   
     axis -90 -45 -2.85299e-015   XYZ
    dof rx rz
    limits (-45.0 45.0)
           (-45.0 45.0)
  end
:hierarchy
  begin
    root lhipjoint rhipjoint lowerback
    lhipjoint lfemur
    lfemur ltibia
    ltibia lfoot
    lfoot ltoes
    rhipjoint rfemur
    rfemur rtibia
    rtibia rfoot
    rfoot rtoes
    lowerback upperback
    upperback thorax
    thorax lowerneck lclavicle rclavicle
    lowerneck upperneck
    upperneck head
    lclavicle lhumerus
    lhumerus lradius
    lradius lwrist
    lwrist lhand lthumb
    lhand lfingers
    rclavicle rhumerus
    rhumerus rradius
    rradius rwrist
    rwrist rhand rthumb
    rhand rfingers
  end

#!OML:ASF H:\IndianDance\Patient Classification 1\Patient 1\Session 1\dancer.ASF
:FULLY-SPECIFIED
:DEGREES
865
root 11.158 14.1255 -0.393575 -173.264 19.6857 -177.607
lowerback 6.61769 3.54549 -2.26135
upperback -8.14649 6.43604 7.42831
thorax -13.9399 4.235 8.28192
lowerneck -14.0059 -10.9317 -7.82926
upperneck 12.6484 -13.3263 1.14672
head 6.73509 -6.69709 0.226573
rclavicle 7.55382e-015 -1.98785e-013
rhumerus 6.7762 -26.6526 -37.3423
rradius 38.728
rwrist -51.8044
rhand 7.88822 -0.00594372
rfingers 7.12502
rthumb 33.1207 -26.9806
lclavicle 7.55382e-015 -1.98785e-013
lhumerus 53.4446 34.8769 -0.527921
lradius 66.5386
lwrist -1.20609
lhand -60.2456 -416.661
lfingers 7.12502
lthumb -32.3856 -389.533
rfemur -42.484 -26.4408 11.9225
rtibia 95.9158
rfoot -13.6455 0.495944
rtoes 7.36152
lfemur -39.2587 10.9746 -37.7747
ltibia 54.4281
lfoot -20.8471 5.57685
ltoes 30.0937
866
root 11.1975 14.11 -0.424941 -173.351 19.6151 -177.549
lowerback 6.78713 3.4859 -2.13267
upperback -8.13036 6.41091 7.57734
thorax -14.0313 4.23083 8.37628
lowerneck -13.9764 -11.0152 -7.59649
upperneck 12.5194 -13.45 0.901669
head 6.65918 -6.76702 0.110163
rclavicle 3.57812e-015 1.01778e-013
rhumerus 8.161 -28.614 -38.3493
rradius 36.9629
rwrist -52.7378
rhand 8.36127 -0.755564
rfingers 7.12502
rthumb 33.5705 -27.6336
lclavicle 3.57812e-015 1.01778e-013
lhumerus 53.0703 34.8202 -0.777608
lradius 66.4765
lwrist -2.92305
lhand -60.8577 -420.968
lfingers 7.12502
lthumb -32.968 -393.961
rfemur -43.0151 -26.5579 11.0862
rtibia 95.74
rfoot -14.5017 0.0315118
rtoes 6.20974
lfemur -39.2138 11.0765 -37.5787
ltibia 54.9252
lfoot -21.2067 5.56751
ltoes 29.888
867
root 11.2376 14.0948 -0.456117 -173.44 19.5474 -177.491
lowerback 6.94515 3.438 -2.01781
upperback -8.11538 6.39835 7.71421
thorax -14.1194 4.23282 8.46303
lowerneck -13.9303 -11.1016 -7.44424
upperneck 12.3823 -13.5794 0.760449
head 6.59086 -6.83503 0.037972
rclavicle 1.90833e-014 7.15625e-014
rhumerus 9.57443 -30.67 -39.4362
rradius 35.2113
rwrist -53.2491
rhand 8.65942 -1.44445
rfingers 7.12502
rthumb 33.8538 -28.2606
lclavicle 1.90833e-014 7.15625e-014
lhumerus 52.7739 34.7776 -0.989656
lradius 66.4071
lwrist -4.43726
lhand -61.3879 -424.857
lfingers 7.12502
lthumb -33.4721 -397.958
rfemur -43.4646 -26.6489 10.3187
rtibia 95.3636
rfoot -15.2964 -0.618594
rtoes 5.39348
lfemur -39.1622 11.2 -37.3801
ltibia 55.409
lfoot -21.558 5.52853
ltoes 29.7069
868
root 11.2783 14.0807 -0.487192 -173.526 19.4823 -177.437
lowerback 7.08466 3.40067 -1.9212
upperback -8.10174 6.39555 7.83809
thorax -14.1996 4.23986 8.54455
lowerneck -13.8676 -11.1911 -7.42316
upperneck 12.2431 -13.7114 0.766685
head 6.53905 -6.89817 0.0301632
rclavicle -2.34566e-014 3.81667e-014
rhumerus 11.0271 -32.8028 -40.604
rradius 33.48
rwrist -53.393
rhand 8.79879 -2.09319
rfingers 7.12502
rthumb 33.9862 -28.88
lclavicle -2.34566e-014 3.81667e-014
lhumerus 52.5588 34.7477 -1.15886
lradius 66.3232
lwrist -5.74722
lhand -61.8523 -428.367
lfingers 7.12502
lthumb -33.9134 -401.564
rfemur -43.8357 -26.7155 9.62569
rtibia 94.786
rfoot -16.0216 -1.49071
rtoes 4.90433
lfemur -39.1033 11.3355 -37.1813
ltibia 55.8701
lfoot -21.8986 5.47398
ltoes 29.5481
869
root 11.3198 14.0682 -0.518085 -173.603 19.4161 -177.387
lowerback 7.19889 3.36848 -1.84872
upperback -8.08934 6.39358 7.94973
thorax -14.2667 4.24821 8.62726
lowerneck -13.8006 -11.2718 -7.41551
upperneck 12.0916 -13.8347 0.808419
head 6.48584 -6.95499 0.0368653
rclavicle 3.06128e-014 -3.02153e-014
rhumerus 12.5665 -35.0355 -41.9011
rradius 31.7611
rwrist -53.1996
rhand 8.79016 -2.72841
rfingers 7.12502
rthumb 33.978 -29.5171
lclavicle 3.06128e-014 -3.02153e-014
lhumerus 52.4008 34.7378 -1.30259
lradius 66.2335
lwrist -6.86117
lhand -62.2253 -431.544
lfingers 7.12502
lthumb -34.2676 -404.82
rfemur -44.1294 -26.7562 9.01224
rtibia 94.0039
rfoot -16.6678 -2.56906
rtoes 4.83669
lfemur -39.0377 11.4716 -36.9823
ltibia 56.2989
lfoot -22.2236 5.41701
ltoes 29.4068
870
root 11.362 14.0579 -0.548906 -173.665 19.3438 -177.342
lowerback 7.28089 3.33967 -1.80081
upperback -8.07993 6.39034 8.05035
thorax -14.3182 4.25727 8.71352
lowerneck -13.7323 -11.3433 -7.38911
upperneck 11.9251 -13.9485 0.84568
head 6.42568 -7.00704 0.0413953
rclavicle -5.08889e-014 -1.74931e-014
rhumerus 14.2116 -37.353 -43.3373
rradius 30.061
rwrist -52.7226
rhand 8.61556 -3.39431
rfingers 7.12502
rthumb 33.8121 -30.2196
lclavicle -5.08889e-014 -1.74931e-014
lhumerus 52.2752 34.7491 -1.43108
lradius 66.1494
lwrist -7.79985
lhand -62.4975 -434.373
lfingers 7.12502
lthumb -34.5261 -407.708
rfemur -44.3456 -26.7742 8.47934
rtibia 93.0055
rfoot -17.2405 -3.82094
rtoes 5.12986
lfemur -38.9653 11.5941 -36.7848
ltibia 56.6863
lfoot -22.5315 5.36886
ltoes 29.284
871
root 11.4047 14.0502 -0.579649 -173.708 19.2576 -177.302
lowerback 7.32583 3.30987 -1.77837
upperback -8.07405 6.38026 8.14308
thorax -14.3511 4.26495 8.80888
lowerneck -13.6698 -11.4023 -7.34951
upperneck 11.7468 -14.047 0.880001
head 6.36096 -7.0515 0.0451686
rclavicle -4.85035e-014 -5.40694e-014
rhumerus 16.0026 -39.7662 -44.9499
rradius 28.3815
rwrist -51.983
rhand 8.26261 -4.09852
rfingers 7.12502
rthumb 33.4767 -30.9969
lclavicle -4.85035e-014 -5.40694e-014
lhumerus 52.1694 34.779 -1.54602
lradius 66.0746
lwrist -8.59701
lhand -62.6964 -436.906
lfingers 7.12502
lthumb -34.7149 -410.284
rfemur -44.4761 -26.7661 8.0254
rtibia 91.773
rfoot -17.7603 -5.19855
rtoes 5.78219
lfemur -38.8866 11.6825 -36.588
ltibia 57.0274
lfoot -22.8159 5.34395
ltoes 29.163
872
root 11.4479 14.0456 -0.610394 -173.73 19.1527 -177.266
lowerback 7.33511 3.27834 -1.7811
upperback -8.07171 6.36336 8.23161
thorax -14.3669 4.27182 8.91735
lowerneck -13.6279 -11.4513 -7.29886
upperneck 11.5728 -14.1306 0.903758
head 6.29899 -7.08906 0.0446559
rclavicle 1.98785e-015 1.1609e-013
rhumerus 17.9664 -42.2602 -46.7617
rradius 26.7423
rwrist -51.0299
rhand 7.73853 -4.83971
rfingers 7.12502
rthumb 32.9784 -31.8445
lclavicle 1.98785e-015 1.1609e-013
lhumerus 52.0684 34.831 -1.65356
lradius 66.0143
lwrist -9.27301
lhand -62.8458 -439.081
lfingers 7.12502
lthumb -34.8567 -412.491
rfemur -44.5093 -26.7197 7.65075
rtibia 90.282
rfoot -18.245 -6.65067
rtoes 6.80131
lfemur -38.7987 11.727 -36.3877
ltibia 57.3195
lfoot -23.073 5.33715
ltoes 29.0639
873
root 11.4915 14.0435 -0.641093 -173.73 19.0221 -177.226
lowerback 7.31056 3.24323 -1.80192
upperback -8.07548 6.33988 8.31945
thorax -14.3694 4.27819 9.03876
lowerneck -13.595 -11.4921 -7.22322
upperneck 11.3953 -14.2032 0.901191
head 6.23317 -7.12234 0.033713
rclavicle -6.36111e-014 -7.4743e-014
rhumerus 20.1254 -44.824 -48.8039
rradius 25.174
rwrist -49.8746
rhand 7.00477 -5.63014
rfingers 7.12502
rthumb 32.2802 -32.7795
lclavicle -6.36111e-014 -7.4743e-014
lhumerus 51.9508 34.902 -1.75613
lradius 65.983
lwrist -9.85245
lhand -62.9624 -440.865
lfingers 7.12502
lthumb -34.9673 -414.301
rfemur -44.4267 -26.6408 7.35761
rtibia 88.5052
rfoot -18.7049 -8.14335
rtoes 7.94316
lfemur -38.7035 11.7152 -36.1776
ltibia 57.5667
lfoot -23.2986 5.36237
ltoes 28.9336
874
root 11.5356 14.0439 -0.671847 -173.708 18.8626 -177.183
lowerback 7.25443 3.195 -1.83807
upperback -8.08848 6.29647 8.40395
thorax -14.3604 4.2771 9.17127
lowerneck -13.568 -11.5169 -7.11721
upperneck 11.2196 -14.2582 0.890275
head 6.16549 -7.14663 0.0177704
rclavicle -8.66701e-014 9.54166e-015
rhumerus 22.5267 -47.4295 -51.1617
rradius 23.7088
rwrist -48.5212
rhand 6.08331 -6.42768
rfingers 7.12502
rthumb 31.4027 -33.7516
lclavicle -8.66701e-014 9.54166e-015
lhumerus 51.8008 34.9873 -1.89246
lradius 65.9735
lwrist -10.3573
lhand -63.0377 -442.224
lfingers 7.12502
lthumb -35.0387 -415.677
rfemur -44.2134 -26.5122 7.14263
rtibia 86.4093
rfoot -19.1318 -9.63211
rtoes 9.13693
lfemur -38.602 11.6399 -35.9552
ltibia 57.7723
lfoot -23.4928 5.41193
ltoes 28.8003
875
root 11.5802 14.0469 -0.702672 -173.664 18.6717 -177.126
lowerback 7.17304 3.13926 -1.88446
upperback -8.10971 6.24344 8.4899
thorax -14.3446 4.27383 9.31487
lowerneck -13.5492 -11.5366 -7.01541
upperneck 11.0497 -14.3068 0.892299
head 6.10212 -7.16689 0.00644165
rclavicle -8.50798e-014 1.43125e-014
rhumerus 25.1784 -50.0409 -53.8444
rradius 22.3956
rwrist -47.0133
rhand 4.99071 -7.20467
rfingers 7.12502
rthumb 30.3611 -34.7259
lclavicle -8.50798e-014 1.43125e-014
lhumerus 51.6266 35.089 -2.03315
lradius 65.9922
lwrist -10.8128
lhand -63.0796 -443.166
lfingers 7.12502
lthumb -35.0785 -416.628
rfemur -43.8493 -26.3252 7.00843
rtibia 83.9609
rfoot -19.5169 -11.0822
rtoes 10.3197
lfemur -38.4933 11.5013 -35.7108
ltibia 57.9431
lfoot -23.6579 5.47977
ltoes 28.6718
876
root 11.6256 14.0521 -0.733672 -173.602 18.4519 -177.054
lowerback 7.07287 3.05132 -1.93873
upperback -8.1488 6.1448 8.56764
thorax -14.3282 4.24987 9.46465
lowerneck -13.5036 -11.5195 -6.82929
upperneck 10.871 -14.323 0.886802
head 6.02375 -7.16907 -0.0130854
rclavicle 4.37326e-015 2.54444e-014
rhumerus 28.0842 -52.5213 -56.9109
rradius 21.2443
rwrist -45.4312
rhand 3.84941 -7.98179
rfingers 7.12502
rthumb 29.2719 -35.6985
lclavicle 4.37326e-015 2.54444e-014
lhumerus 51.353 35.1896 -2.29658
lradius 66.0555
lwrist -11.2218
lhand -63.0756 -443.701
lfingers 7.12502
lthumb -35.0747 -417.163
rfemur -43.3147 -26.0682 6.95095
rtibia 81.1291
rfoot -19.8362 -12.4607
rtoes 11.3727
lfemur -38.3763 11.3095 -35.4391
ltibia 58.0853
lfoot -23.798 5.56624
ltoes 28.5122
